<svg width="681" height="456" viewBox="0 0 681 456" fill="none" xmlns="http://www.w3.org/2000/svg">
<g clip-path="url(#clip0_2_2)">
<path d="M675.979 321H244.021C242.69 320.999 241.414 320.585 240.472 319.851C239.531 319.116 239.002 318.12 239 317.081V3.91941C239.002 2.88034 239.531 1.8842 240.472 1.14947C241.414 0.414732 242.69 0.00135833 244.021 0H675.979C677.31 0.00135833 678.586 0.414732 679.528 1.14947C680.469 1.8842 680.998 2.88034 681 3.91941V317.08C680.999 318.119 680.469 319.115 679.528 319.85C678.587 320.585 677.31 320.998 675.979 320.999V321Z" fill="white"/>
<path d="M675.975 321.128H243.658C242.326 321.127 241.049 320.713 240.107 319.978C239.165 319.243 238.635 318.247 238.633 317.207V3.92097C238.635 2.88148 239.165 1.88495 240.107 1.14993C241.049 0.414897 242.326 0.00135887 243.658 0H675.975C677.307 0.00135887 678.584 0.414897 679.526 1.14993C680.468 1.88495 680.998 2.88148 681 3.92097V317.206C680.999 318.246 680.469 319.242 679.527 319.978C678.585 320.713 677.307 321.126 675.975 321.127V321.128ZM243.658 1.5653C242.86 1.56665 242.094 1.81474 241.53 2.25525C240.965 2.69576 240.647 3.29284 240.646 3.91583V317.206C240.647 317.829 240.965 318.426 241.53 318.867C242.094 319.307 242.86 319.555 243.658 319.557H675.975C676.774 319.556 677.539 319.308 678.104 318.867C678.668 318.426 678.986 317.829 678.987 317.206V3.92097C678.986 3.29799 678.668 2.70091 678.103 2.26039C677.539 1.81988 676.774 1.5718 675.975 1.57044L243.658 1.5653Z" fill="#CACACA"/>
<path d="M447.936 81.4084C447.032 81.4096 446.166 81.6906 445.527 82.1897C444.889 82.6888 444.53 83.3652 444.53 84.0704C444.53 84.7756 444.889 85.452 445.527 85.951C446.166 86.4501 447.032 86.7311 447.936 86.7323H635.123C636.027 86.7311 636.893 86.4501 637.531 85.951C638.17 85.452 638.528 84.7756 638.528 84.0704C638.528 83.3652 638.17 82.6888 637.531 82.1897C636.893 81.6906 636.027 81.4096 635.123 81.4084H447.936Z" fill="#301934" fill-opacity="0.8"/>
<path d="M447.936 97.3817C447.032 97.3834 446.167 97.6646 445.529 98.1636C444.891 98.6626 444.533 99.3387 444.533 100.044C444.533 100.749 444.891 101.425 445.529 101.924C446.167 102.423 447.032 102.704 447.936 102.706H543.499C544.402 102.704 545.267 102.423 545.905 101.924C546.543 101.425 546.902 100.749 546.902 100.044C546.902 99.3387 546.543 98.6626 545.905 98.1636C545.267 97.6646 544.402 97.3834 543.499 97.3817H447.936Z" fill="#301934" fill-opacity="0.8"/>
<path d="M284.328 183.28C283.425 183.282 282.559 183.563 281.921 184.062C281.283 184.561 280.925 185.237 280.925 185.942C280.925 186.647 281.283 187.323 281.921 187.822C282.559 188.321 283.425 188.602 284.328 188.604H635.305C636.208 188.602 637.074 188.321 637.712 187.822C638.35 187.323 638.708 186.647 638.708 185.942C638.708 185.237 638.35 184.561 637.712 184.062C637.074 183.563 636.208 183.282 635.305 183.28H284.328Z" fill="#301934" fill-opacity="0.8"/>
<path d="M284.328 199.254C283.425 199.255 282.559 199.536 281.921 200.035C281.283 200.535 280.925 201.211 280.925 201.915C280.925 202.62 281.283 203.296 281.921 203.795C282.559 204.295 283.425 204.576 284.328 204.577H543.681C544.584 204.576 545.45 204.295 546.088 203.795C546.726 203.296 547.084 202.62 547.084 201.915C547.084 201.211 546.726 200.535 546.088 200.035C545.45 199.536 544.584 199.255 543.681 199.254H284.328Z" fill="#301934" fill-opacity="0.8"/>
<path d="M284.328 214.865C283.425 214.867 282.559 215.148 281.921 215.647C281.283 216.146 280.925 216.822 280.925 217.527C280.925 218.232 281.283 218.908 281.921 219.407C282.559 219.906 283.425 220.188 284.328 220.189H635.305C636.208 220.188 637.074 219.906 637.712 219.407C638.35 218.908 638.708 218.232 638.708 217.527C638.708 216.822 638.35 216.146 637.712 215.647C637.074 215.148 636.208 214.867 635.305 214.865H284.328Z" fill="#301934" fill-opacity="0.8"/>
<path d="M284.328 230.839C283.425 230.84 282.559 231.122 281.921 231.621C281.283 232.12 280.925 232.796 280.925 233.501C280.925 234.205 281.283 234.882 281.921 235.381C282.559 235.88 283.425 236.161 284.328 236.163H543.681C544.584 236.161 545.45 235.88 546.088 235.381C546.726 234.882 547.084 234.205 547.084 233.501C547.084 232.796 546.726 232.12 546.088 231.621C545.45 231.122 544.584 230.84 543.681 230.839H284.328Z" fill="#301934" fill-opacity="0.8"/>
<path d="M284.328 246.866C283.425 246.868 282.559 247.149 281.921 247.648C281.283 248.147 280.925 248.823 280.925 249.528C280.925 250.233 281.283 250.909 281.921 251.408C282.559 251.907 283.425 252.189 284.328 252.19H635.305C636.208 252.189 637.074 251.907 637.712 251.408C638.35 250.909 638.708 250.233 638.708 249.528C638.708 248.823 638.35 248.147 637.712 247.648C637.074 247.149 636.208 246.868 635.305 246.866H284.328Z" fill="#301934" fill-opacity="0.8"/>
<path d="M284.328 262.84C283.425 262.841 282.559 263.123 281.921 263.622C281.283 264.121 280.925 264.797 280.925 265.502C280.925 266.206 281.283 266.883 281.921 267.382C282.559 267.881 283.425 268.162 284.328 268.164H543.681C544.584 268.162 545.45 267.881 546.088 267.382C546.726 266.883 547.084 266.206 547.084 265.502C547.084 264.797 546.726 264.121 546.088 263.622C545.45 263.123 544.584 262.841 543.681 262.84H284.328Z" fill="#301934" fill-opacity="0.8"/>
<path d="M340 88C330.705 88.0001 321.618 85.5369 313.889 80.9219C306.159 76.307 300.135 69.7475 296.578 62.073C293.02 54.3985 292.09 45.9537 293.903 37.8065C295.717 29.6592 300.193 22.1755 306.766 16.3017C313.339 10.4278 321.714 6.42768 330.831 4.80707C339.948 3.18646 349.398 4.01817 357.986 7.19704C366.574 10.3759 373.915 15.7591 379.079 22.666C384.244 29.5729 387 37.6932 387 46C386.986 57.1351 382.03 67.8106 373.219 75.6844C364.408 83.5582 352.461 87.9873 340 88V88Z" fill="#301934"/>
<path d="M334.437 59.5374C333.698 59.5382 332.986 59.2949 332.445 58.8567L318.933 47.9367C318.365 47.4769 318.03 46.8397 318.002 46.1652C317.974 45.4906 318.254 44.8339 318.782 44.3394C319.31 43.8448 320.042 43.5528 320.817 43.5276C321.593 43.5023 322.348 43.7459 322.917 44.2048L334.362 53.4544L357.006 33.7528C357.277 33.5148 357.6 33.3258 357.956 33.1966C358.311 33.0674 358.693 33.0006 359.078 33C359.463 32.9994 359.845 33.065 360.201 33.193C360.557 33.321 360.881 33.509 361.153 33.7461C361.426 33.9832 361.642 34.2648 361.789 34.5747C361.936 34.8846 362.011 35.2167 362.01 35.5519C362.01 35.8872 361.933 36.219 361.784 36.5284C361.636 36.8378 361.418 37.1186 361.145 37.3547L336.507 58.7916C336.235 59.0284 335.912 59.2161 335.557 59.3441C335.202 59.4721 334.821 59.5378 334.437 59.5374V59.5374Z" fill="white"/>
<path d="M178.507 245.92C178.432 244.379 178.016 242.873 177.287 241.508C176.557 240.143 175.533 238.951 174.285 238.018C173.038 237.085 171.598 236.432 170.066 236.106C168.535 235.78 166.95 235.789 165.422 236.131L151.249 216.468L137.011 222.032L157.422 249.524C158.176 252.013 159.832 254.143 162.074 255.51C164.317 256.877 166.991 257.386 169.59 256.942C172.189 256.498 174.533 255.13 176.176 253.099C177.819 251.067 178.648 248.513 178.507 245.92H178.507Z" fill="#A0616A"/>
<path d="M150.884 244.463L108 189.691L124.068 139.974C125.246 127.474 133.191 123.984 133.529 123.842L134.045 123.624L148.027 160.333L137.761 187.286L162.959 229.009L150.884 244.463Z" fill="#3F3D56"/>
<path d="M299.815 75.6211C298.26 75.813 296.767 76.3382 295.441 77.1596C294.115 77.981 292.988 79.0787 292.139 80.3753C291.291 81.6719 290.741 83.136 290.529 84.6643C290.318 86.1927 290.449 87.7482 290.914 89.2212L272.096 104.653L278.832 118.198L305.096 96.0383C307.557 95.1053 309.586 93.3157 310.797 91.0086C312.008 88.7015 312.318 86.0372 311.667 83.5205C311.016 81.0039 309.45 78.8097 307.265 77.3538C305.081 75.8979 302.43 75.2814 299.815 75.6211V75.6211Z" fill="#A0616A"/>
<path d="M300.475 102.846L248.323 149.174L196.732 137.246C183.982 137.057 179.833 129.528 179.662 129.207L179.402 128.718L215.497 112.155L243.586 120.148L283.891 92.1889L300.475 102.846Z" fill="#3F3D56"/>
<path d="M210.14 432.19L224.152 432.19L230.818 378.981L210.137 378.982L210.14 432.19Z" fill="#A0616A"/>
<path d="M251.176 444.998L207.138 445L207.137 428.249L238.82 428.248C242.097 428.247 245.239 429.529 247.557 431.81C249.874 434.091 251.175 437.185 251.176 440.41L251.176 444.998L251.176 444.998Z" fill="#2F2E41"/>
<path d="M154.136 432.19L168.148 432.19L174.814 378.981L154.134 378.982L154.136 432.19Z" fill="#A0616A"/>
<path d="M195.172 444.998L151.134 445L151.133 428.249L182.816 428.248C184.439 428.248 186.045 428.562 187.544 429.173C189.043 429.784 190.405 430.68 191.553 431.81C192.7 432.939 193.61 434.28 194.231 435.756C194.852 437.232 195.172 438.813 195.172 440.411L195.172 444.998V444.998Z" fill="#2F2E41"/>
<path d="M149.152 237.972L150.295 316.737L151.439 420.256L176.583 418.006L189.155 275.105L205.157 418.006H231.115L233.73 273.98L224.586 242.473L149.152 237.972Z" fill="#2F2E41"/>
<path d="M198.367 248.55C171.008 248.552 145.824 236.361 145.484 236.194L145.202 236.055L142.906 181.81C142.24 179.893 129.13 142.069 126.91 130.047C124.66 117.866 157.264 107.177 161.224 105.926L162.122 96.1279L198.659 92.2519L203.289 104.79L216.397 109.628C217.883 110.177 219.113 111.244 219.854 112.626C220.594 114.008 220.794 115.61 220.416 117.127L213.13 146.294L230.923 242.791L227.093 242.954C217.911 247.036 208.001 248.549 198.367 248.55Z" fill="#3F3D56"/>
<path d="M194.439 82.8721C207.187 76.0113 211.872 60.2753 204.903 47.7248C197.934 35.1742 181.95 30.5618 169.202 37.4226C156.454 44.2833 151.769 60.0193 158.738 72.5699C165.707 85.1204 181.69 89.7329 194.439 82.8721Z" fill="#A0616A"/>
<path d="M160.514 85.2193C165.527 90.4768 174.838 87.6544 175.491 80.4719C175.542 79.9143 175.539 79.3531 175.48 78.7961C175.143 75.6146 173.276 72.7261 173.723 69.3668C173.824 68.5307 174.141 67.734 174.642 67.052C178.637 61.7852 188.015 69.4077 191.786 64.6398C194.098 61.7163 191.38 57.1134 193.154 53.8458C195.496 49.5332 202.431 51.6606 206.781 49.2988C211.62 46.671 211.33 39.3614 208.145 34.9154C204.26 29.4932 197.449 26.6 190.722 26.183C183.996 25.766 177.316 27.5562 171.036 29.9655C163.901 32.703 156.825 36.4863 152.434 42.6629C147.095 50.1744 146.581 60.2728 149.251 69.056C150.876 74.399 156.42 80.9259 160.514 85.2193Z" fill="#2F2E41"/>
<path d="M75.7574 396.817C79.6806 398.196 83.8928 398.542 87.9882 397.82C92.0836 397.099 95.9243 395.335 99.1401 392.698C107.33 385.824 109.898 374.502 111.987 364.017L118.167 333L105.229 341.908C95.9242 348.315 86.4105 354.927 79.9687 364.206C73.5268 373.485 70.7165 386.153 75.8908 396.194" fill="#301934"/>
<path d="M77.7551 436.528C76.1267 424.664 74.4513 412.647 75.5963 400.656C76.6109 390.007 79.86 379.607 86.4746 371.077C89.9856 366.558 94.2578 362.687 99.0992 359.636C100.361 358.84 101.523 360.84 100.267 361.633C91.8894 366.927 85.4098 374.745 81.7621 383.959C77.7335 394.205 77.0866 405.375 77.7806 416.259C78.2 422.841 79.0913 429.38 79.9865 435.912C80.0571 436.207 80.013 436.518 79.863 436.782C79.713 437.046 79.4683 437.244 79.1784 437.334C78.8827 437.414 78.5675 437.374 78.3012 437.223C78.0349 437.071 77.839 436.821 77.7559 436.526L77.7551 436.528Z" fill="#301934"/>
<path d="M89.4761 417.491C91.1584 420.049 93.4712 422.131 96.1915 423.535C98.9118 424.94 101.948 425.62 105.008 425.51C112.872 425.137 119.426 419.65 125.325 414.44L142.777 399.031L131.227 398.478C122.921 398.08 114.4 397.707 106.489 400.271C98.5773 402.836 91.2811 408.998 89.8347 417.187" fill="#301934"/>
<path d="M73.1521 443.347C80.9919 429.476 90.0845 414.06 106.333 409.132C110.85 407.767 115.587 407.278 120.288 407.691C121.77 407.819 121.4 410.103 119.921 409.976C112.041 409.321 104.176 411.402 97.6497 415.868C91.3698 420.142 86.48 426.085 82.3419 432.387C79.8068 436.247 77.5362 440.271 75.2655 444.29C74.5399 445.574 72.4181 444.647 73.1521 443.347Z" fill="#301934"/>
</g>
<defs>
<clipPath id="clip0_2_2">
<rect width="681" height="456" fill="white"/>
</clipPath>
</defs>
</svg>
