<svg width="727" height="474" viewBox="0 0 727 474" fill="none" xmlns="http://www.w3.org/2000/svg">
<path d="M499 0.27771H0.212952V314H499V0.27771Z" fill="#E6E6E6"/>
<path d="M484.737 39.6263H14.4757V159.22H484.737V39.6263Z" fill="white"/>
<path d="M230.899 56.9009H131.449V62.5074H230.899V56.9009Z" fill="#E6E6E6"/>
<path d="M285.021 77.352H131.449V82.9585H285.021V77.352Z" fill="#301934"/>
<path d="M256.607 96.6198H131.449V102.226H256.607V96.6198Z" fill="#E6E6E6"/>
<path d="M204.514 115.815H131.449V121.421H204.514V115.815Z" fill="#E6E6E6"/>
<path d="M241.723 135.01H131.449V140.616H241.723V135.01Z" fill="#E6E6E6"/>
<path d="M98.2989 54.9077H86.1214V66.867H98.2989V54.9077Z" fill="#E6E6E6"/>
<path d="M98.2989 74.1756H86.1214V86.1349H98.2989V74.1756Z" fill="#301934"/>
<path d="M98.2989 93.4434H86.1214V105.403H98.2989V93.4434Z" fill="#E6E6E6"/>
<path d="M98.2989 112.711H86.1214V124.671H98.2989V112.711Z" fill="#E6E6E6"/>
<path d="M98.2989 131.979H86.1214V143.938H98.2989V131.979Z" fill="#E6E6E6"/>
<path d="M418.974 82.1485H378.382V122.013H418.974V82.1485Z" fill="#301934" fill-opacity="0.8"/>
<path d="M484.909 176.146H14.1786V295.202H484.909V176.146Z" fill="white"/>
<path d="M119.271 186.459H107.094V198.418H119.271V186.459Z" fill="#E6E6E6"/>
<path d="M98.2989 186.459H86.1214V198.418H98.2989V186.459Z" fill="#301934"/>
<path d="M292.593 212.612C288.881 206.441 283.732 201.223 277.567 197.387C271.402 193.552 264.398 191.208 257.131 190.549C249.864 189.889 242.541 190.933 235.765 193.595C228.989 196.256 222.953 200.459 218.153 205.858L215.185 203.312C220.394 197.45 226.946 192.887 234.301 189.997C241.656 187.107 249.604 185.974 257.493 186.689C265.381 187.405 272.984 189.949 279.675 194.113C286.367 198.277 291.957 203.941 295.984 210.64L292.593 212.612Z" fill="#E6E6E6"/>
<path d="M294.45 263.032L291.18 260.872C296.024 253.777 298.727 245.481 298.977 236.942C299.227 228.403 297.014 219.969 292.593 212.612L295.984 210.64C300.785 218.627 303.188 227.783 302.916 237.053C302.645 246.324 299.71 255.329 294.45 263.032V263.032Z" fill="#301934"/>
<path d="M215.596 268.424C207.45 259.489 202.911 247.937 202.836 235.944C202.76 223.951 207.152 212.345 215.185 203.312L218.153 205.858C210.753 214.18 206.707 224.872 206.777 235.92C206.846 246.968 211.027 257.61 218.531 265.841L215.596 268.424Z" fill="#301934"/>
<path d="M252.886 284.795C245.848 284.79 238.891 283.329 232.466 280.509C226.041 277.688 220.293 273.57 215.596 268.424L218.531 265.841C223.217 270.983 229.037 275.004 235.547 277.599C242.057 280.194 249.085 281.294 256.094 280.815C263.103 280.335 269.907 278.289 275.988 274.833C282.069 271.377 287.265 266.601 291.18 260.872L294.45 263.032C289.875 269.732 283.689 275.223 276.44 279.019C269.191 282.815 261.101 284.798 252.886 284.795V284.795Z" fill="#301934"/>
<path d="M418.974 212.373H378.382V252.237H418.974V212.373Z" fill="#301934" fill-opacity="0.8"/>
<path d="M125.022 238.285H84.4301V278.149H125.022V238.285Z" fill="#301934" fill-opacity="0.8"/>
<path d="M498.787 0H0V20.8107H498.787V0Z" fill="#301934"/>
<path d="M16.8923 15.4397C19.2192 15.4397 21.1055 13.6004 21.1055 11.3317C21.1055 9.06286 19.2192 7.22363 16.8923 7.22363C14.5655 7.22363 12.6792 9.06286 12.6792 11.3317C12.6792 13.6004 14.5655 15.4397 16.8923 15.4397Z" fill="white"/>
<path d="M32.8843 15.4397C35.2112 15.4397 37.0975 13.6004 37.0975 11.3317C37.0975 9.06286 35.2112 7.22363 32.8843 7.22363C30.5575 7.22363 28.6712 9.06286 28.6712 11.3317C28.6712 13.6004 30.5575 15.4397 32.8843 15.4397Z" fill="white"/>
<path d="M48.8763 15.4397C51.2032 15.4397 53.0895 13.6004 53.0895 11.3317C53.0895 9.06286 51.2032 7.22363 48.8763 7.22363C46.5495 7.22363 44.6632 9.06286 44.6632 11.3317C44.6632 13.6004 46.5495 15.4397 48.8763 15.4397Z" fill="white"/>
<path d="M562.477 285.955H572.763L577.657 252.559L562.474 252.56L562.477 285.955Z" fill="#FFB8B8"/>
<path d="M560.197 283.173L579.67 283.172H579.671C582.962 283.172 586.118 284.379 588.445 286.527C590.772 288.675 592.08 291.589 592.08 294.627V294.999L560.198 295L560.197 283.173Z" fill="#301934"/>
<path d="M537.423 253.649L544.858 259.517L574.62 237.563L563.648 228.903L537.423 253.649Z" fill="#FFB8B8"/>
<path d="M537.809 249.776L552.325 261.289L552.326 261.29C554.779 263.236 556.241 265.947 556.389 268.828C556.537 271.708 555.36 274.522 553.116 276.65L552.841 276.91L529.073 258.06L537.809 249.776Z" fill="#301934"/>
<path d="M577.988 168.659L575.172 218L582.212 271.66L561.094 274.127L547.72 206.282L543.496 160.024L577.988 168.659Z" fill="#301934"/>
<path d="M611.302 151.055C611.302 151.055 619.778 199.465 602.12 215.397C584.462 231.329 560.448 259.517 560.448 259.517L543.496 241.133L586.581 201.303L578.106 174.341L543.496 160.247L549.147 126.544L600.001 125.932L611.302 151.055Z" fill="#301934"/>
<path d="M572.343 38.2665C581.986 38.2665 589.803 31.5693 589.803 23.3078C589.803 15.0463 581.986 8.34906 572.343 8.34906C562.7 8.34906 554.883 15.0463 554.883 23.3078C554.883 31.5693 562.7 38.2665 572.343 38.2665Z" fill="#FFB8B8"/>
<path d="M586.88 44.5283L589.541 48.0235L596.635 65.2426L590.96 132.274L557.621 132.889L553.365 56.0179L562.281 46.3563L586.88 44.5283Z" fill="#CCCCCC"/>
<path d="M540.147 58.3615L534.431 57.7476C534.431 57.7476 533.003 58.3615 532.288 62.6588C531.574 66.9561 523 105.018 523 105.018L534.431 151.675L547.292 136.941L539.433 111.157L547.292 85.3732L540.147 58.3615Z" fill="#301934"/>
<path d="M612.025 57.7476H616.303L627 107.45L617.017 146.109L607.033 131.995L609.885 116.655L608.459 103.155L603.467 95.1778L612.025 57.7476Z" fill="#301934"/>
<path d="M582.527 23.4402L579.381 22.7527C579.381 22.7527 577.02 11.0655 571.514 12.4404C566.007 13.8154 551.847 15.1904 551.847 9.69048C551.847 4.19058 565.22 -0.621808 573.087 0.0656779C580.954 0.753164 591.001 3.03388 593.541 13.1279C597.612 29.3091 585.141 33.3962 585.141 33.3962L585.348 32.8071C585.924 31.1712 585.966 29.4271 585.467 27.7719C584.969 26.1166 583.95 24.6162 582.527 23.4402V23.4402Z" fill="#2F2E41"/>
<path d="M535.146 57.6718L557.724 49.7246L563.015 46.3623L578.89 107.189L589.473 79.6795L586.298 44.5283L615.579 57.6718L605.701 99.242L604.29 115.136L608.523 127.974C608.523 127.974 623.34 137.144 618.401 146.925C613.462 156.707 607.818 157.318 607.818 157.318C607.818 157.318 583.829 137.755 582.418 132.865C581.007 127.974 578.89 119.416 578.89 119.416C578.89 119.416 566.896 158.541 552.785 157.929C538.674 157.318 538.674 144.48 538.674 144.48L542.201 131.031L547.846 116.97L545.024 93.74L535.146 57.6718Z" fill="#301934"/>
</svg>
